# xmcd
#
# Track frame offsets: 
#        182
#        18377
#        42275
#        59710
#        74922
#        95025
#        116177
#        133840
#        151507
#        170455
#        190672
#
# Disc length: 2831 seconds
#
# Revision: 2
# Processed by: cddbd v1.5.2PL0 Copyright (c) Steve Scherf et al.
# Submitted via: ExactAudioCopy v0.99pb5
#
DISCID=a00b0d0b
DTITLE=Pierre Porte - EMERGENCE
DYEAR=1900
DGENRE=Easy Listening
TTITLE0=Emergence
TTITLE1=Eveil
TTITLE2=Vol de Nuit
TTITLE3=Le Vaisseau Blanc
TTITLE4=La Corde d'Argent
TTITLE5=Generation Cristal
TTITLE6=Chrysalide d'Or
TTITLE7=Solstice
TTITLE8=Flash-back
TTITLE9=Rock Station
TTITLE10=Asphalte
EXTD=
EXTT0=
EXTT1=
EXTT2=
EXTT3=
EXTT4=
EXTT5=
EXTT6=
EXTT7=
EXTT8=
EXTT9=
EXTT10=
PLAYORDER=
